<svg width="26" height="26" viewBox="0 0 26 26" fill="none" xmlns="http://www.w3.org/2000/svg">
<path fill-rule="evenodd" clip-rule="evenodd" d="M18.1788 0.571655H8.17883C4.0367 0.571655 0.678833 3.92952 0.678833 8.07166V18.0717C0.678833 22.2138 4.0367 25.5717 8.17883 25.5717H18.1788C22.321 25.5717 25.6788 22.2138 25.6788 18.0717V8.07166C25.6788 3.92952 22.321 0.571655 18.1788 0.571655ZM3.17883 8.07166C3.17883 5.31023 5.41741 3.07166 8.17883 3.07166H18.1788C20.9403 3.07166 23.1788 5.31023 23.1788 8.07166V18.0717C23.1788 20.8331 20.9403 23.0717 18.1788 23.0717H8.17883C5.41741 23.0717 3.17883 20.8331 3.17883 18.0717V8.07166ZM13.1788 19.3217C9.72705 19.3217 6.92883 16.5234 6.92883 13.0717C6.92883 9.61988 9.72705 6.82166 13.1788 6.82166C16.6306 6.82166 19.4288 9.61988 19.4288 13.0717C19.4288 16.5234 16.6306 19.3217 13.1788 19.3217ZM13.1788 16.8217C15.2499 16.8217 16.9288 15.1427 16.9288 13.0717C16.9288 11.0006 15.2499 9.32166 13.1788 9.32166C11.1078 9.32166 9.42883 11.0006 9.42883 13.0717C9.42883 15.1427 11.1078 16.8217 13.1788 16.8217ZM20.6788 6.82166C20.6788 7.51201 20.1192 8.07166 19.4288 8.07166C18.7385 8.07166 18.1788 7.51201 18.1788 6.82166C18.1788 6.1313 18.7385 5.57166 19.4288 5.57166C20.1192 5.57166 20.6788 6.1313 20.6788 6.82166Z" fill="white"/>
</svg>
