<svg width="26" height="26" viewBox="0 0 26 26" fill="none" xmlns="http://www.w3.org/2000/svg">
<path d="M12.4688 0.521802C5.86814 0.840302 0.660577 6.36898 0.678513 13.0094C0.684492 15.0346 1.16878 16.9456 2.02973 18.6282L0.714386 25.0523C0.64264 25.4008 0.953539 25.7013 1.30031 25.6232L7.55417 24.1328C9.16247 24.9381 10.9681 25.4008 12.8813 25.4309C19.6314 25.533 25.2575 20.1486 25.4667 13.37C25.6939 6.10456 19.7271 0.179264 12.4688 0.521802ZM19.9423 19.8722C18.1068 21.7171 15.6734 22.7326 13.0786 22.7326C11.56 22.7326 10.1071 22.3901 8.75591 21.7171L7.883 21.2784L4.04459 22.1918L4.85174 18.2496L4.42126 17.4023C3.72174 16.0261 3.36899 14.5358 3.36899 12.9733C3.36899 10.3652 4.37941 7.91941 6.21491 6.07451C8.03247 4.24765 10.5077 3.21403 13.0786 3.21403C15.6734 3.21403 18.1068 4.22962 19.9423 6.07451C21.7778 7.91941 22.7882 10.3652 22.7882 12.9733C22.7882 15.5574 21.7599 18.0453 19.9423 19.8722Z" fill="white"/>
<path d="M19.0933 15.6776L16.6898 14.9865C16.3729 14.8963 16.0321 14.9865 15.8049 15.2208L15.219 15.8218C14.9739 16.0742 14.5972 16.1583 14.2684 16.0261C13.1324 15.5634 10.7409 13.43 10.131 12.3604C9.95766 12.0539 9.98157 11.6693 10.2028 11.3868L10.717 10.7198C10.9202 10.4614 10.9621 10.1068 10.8246 9.80635L9.81417 7.51075C9.57502 6.95788 8.8755 6.80163 8.41513 7.18624C7.7455 7.75713 6.95032 8.62249 6.85466 9.584C6.68128 11.2727 7.40471 13.406 10.137 15.966C13.2878 18.9227 15.8169 19.3133 17.4551 18.9166C18.3878 18.6883 19.1351 17.7809 19.6015 17.0357C19.9243 16.5129 19.6672 15.8398 19.0933 15.6776Z" fill="white"/>
</svg>
